<?xml version="1.0" encoding="utf-8"?>
<svg xmlns="http://www.w3.org/2000/svg" width="1200" height="400" viewBox="0 0 1200 400">
<rect x="0" y="0" width="1200" height="400" fill="white"/>
<polygon points="20.00,380.00 20.00,359.81 76.93,230.99 117.01,144.29 170.84,80.93 199.22,20.00 239.98,52.73 381.70,169.36 414.39,110.17 440.41,128.97 498.42,189.21 605.84,87.20 728.55,77.45 757.84,44.37 787.20,97.29 810.56,150.21 989.60,172.15 1084.88,358.41 1094.99,342.75 1132.58,380.00 1180.00,361.20 1180.00,380.00" fill="rgba(255,0,0,0.1)" stroke="none"/>
<polyline points="20.00,359.81 76.93,230.99 117.01,144.29 170.84,80.93 199.22,20.00 239.98,52.73 381.70,169.36 414.39,110.17 440.41,128.97 498.42,189.21 605.84,87.20 728.55,77.45 757.84,44.37 787.20,97.29 810.56,150.21 989.60,172.15 1084.88,358.41 1094.99,342.75 1132.58,380.00 1180.00,361.20" fill="none" stroke="red" stroke-width="2" stroke-linejoin="round" stroke-linecap="round"/>
</svg>